HIERARCHY
ROOT hips
{
  OFFSET 0 10.6860622 2.3727825e-15
  CHANNELS 6 Xposition Yposition Zposition Yrotation Xrotation Zrotation
  JOINT leftUpperLeg
  {
    OFFSET 0.6642549969 -0.9402397400000004 0
    CHANNELS 3 Yrotation Xrotation Zrotation
    JOINT leftLowerLeg
    {
      OFFSET 0 -3.997221335632195 0
      CHANNELS 3 Yrotation Xrotation Zrotation
      JOINT leftFoot
      {
        OFFSET -0.13777839790000004 -4.6145792000000005 -0.22186036399999998
        CHANNELS 3 Yrotation Xrotation Zrotation
        JOINT leftToes
        {
          OFFSET -0.03777410834999995 -0.9130806927000008 0.85230013
          CHANNELS 3 Yrotation Xrotation Zrotation
          End Site
          {
            OFFSET -0.03777410834999995 -0.9130806927000008 0.85230013
          }
        }
      }
    }
  }
  JOINT rightUpperLeg
  {
    OFFSET -0.6642778626 -0.9402397400000004 0
    CHANNELS 3 Yrotation Xrotation Zrotation
    JOINT rightLowerLeg
    {
      OFFSET 0 -3.997221452859387 0
      CHANNELS 3 Yrotation Xrotation Zrotation
      JOINT rightFoot
      {
        OFFSET 0.1377926176 -4.6145792000000005 -0.22185782299999995
        CHANNELS 3 Yrotation Xrotation Zrotation
        JOINT rightToes
        {
          OFFSET 0.037780746850000047 -0.9130806927000008 0.85230167
          CHANNELS 3 Yrotation Xrotation Zrotation
          End Site
          {
            OFFSET 0.037780746850000047 -0.9130806927000008 0.85230167
          }
        }
      }
    }
  }
  JOINT spine
  {
    OFFSET 0 0.13988381660000015 0
    CHANNELS 3 Yrotation Xrotation Zrotation
    JOINT chest
    {
      OFFSET 0 0.6191039003973773 0
      CHANNELS 3 Yrotation Xrotation Zrotation
      JOINT upperChest
      {
        OFFSET 0 0.9855186130586943 0
        CHANNELS 3 Yrotation Xrotation Zrotation
        JOINT leftShoulder
        {
          OFFSET 0.1807663869 1.5087829790000005 0
          CHANNELS 3 Yrotation Xrotation Zrotation
          JOINT leftUpperArm
          {
            OFFSET 0.5985063006419806 0 0
            CHANNELS 3 Yrotation Xrotation Zrotation
            JOINT leftLowerArm
            {
              OFFSET 2.2993332369501065 0 0
              CHANNELS 3 Yrotation Xrotation Zrotation
              JOINT leftHand
              {
                OFFSET 2.395047042602395 0 0
                CHANNELS 3 Yrotation Xrotation Zrotation
                JOINT leftIndexProximal
                {
                  OFFSET 0.5766295810000004 0.04556643899499946 0.17265095988184
                  CHANNELS 3 Yrotation Xrotation Zrotation
                  JOINT leftIndexIntermediate
                  {
                    OFFSET 0.2957229000000008 -0.019352197700001517 -0.007932640616999987
                    CHANNELS 3 Yrotation Xrotation Zrotation
                    JOINT leftIndexDistal
                    {
                      OFFSET 0.19008243099999922 -0.012484908149998475 -0.002786250786000012
                      CHANNELS 3 Yrotation Xrotation Zrotation
                      End Site
                      {
                        OFFSET 0.19008243099999922 -0.012484908149998475 -0.002786250786000012
                      }
                    }
                  }
                }
                JOINT leftMiddleProximal
                {
                  OFFSET 0.5834975091000001 0.0524350405149987 0.02204081888183999
                  CHANNELS 3 Yrotation Xrotation Zrotation
                  JOINT leftMiddleIntermediate
                  {
                    OFFSET 0.33880573540000003 -0.019871473270000717 -0.00000971183179999946
                    CHANNELS 3 Yrotation Xrotation Zrotation
                    JOINT leftMiddleDistal
                    {
                      OFFSET 0.20676022730000088 -0.012221336379999448 0.0001471936708000235
                      CHANNELS 3 Yrotation Xrotation Zrotation
                      End Site
                      {
                        OFFSET 0.20676022730000088 -0.012221336379999448 0.0001471936708000235
                      }
                    }
                  }
                }
                JOINT leftLittleProximal
                {
                  OFFSET 0.5344154683999995 -0.012880921405001189 -0.24414037221816004
                  CHANNELS 3 Yrotation Xrotation Zrotation
                  JOINT leftLittleIntermediate
                  {
                    OFFSET 0.21758961730000093 -0.011650919939999227 0.011893592810000034
                    CHANNELS 3 Yrotation Xrotation Zrotation
                    JOINT leftLittleDistal
                    {
                      OFFSET 0.1475273964999999 -0.008152365682999818 0.006001092492999946
                      CHANNELS 3 Yrotation Xrotation Zrotation
                      End Site
                      {
                        OFFSET 0.1475273964999999 -0.008152365682999818 0.006001092492999946
                      }
                    }
                  }
                }
                JOINT leftRingProximal
                {
                  OFFSET 0.5799399463000003 0.026911854694997794 -0.12150566991816003
                  CHANNELS 3 Yrotation Xrotation Zrotation
                  JOINT leftRingIntermediate
                  {
                    OFFSET 0.26167887460000006 -0.013480186499999602 0.010996293000000053
                    CHANNELS 3 Yrotation Xrotation Zrotation
                    JOINT leftRingDistal
                    {
                      OFFSET 0.17667108799999987 -0.008990287899999228 0.0055541023999999065
                      CHANNELS 3 Yrotation Xrotation Zrotation
                      End Site
                      {
                        OFFSET 0.17667108799999987 -0.008990287899999228 0.0055541023999999065
                      }
                    }
                  }
                }
                JOINT leftThumbProximal
                {
                  OFFSET 0.11018806699999972 -0.09448718900500053 0.17047963138184
                  CHANNELS 3 Yrotation Xrotation Zrotation
                  JOINT leftThumbIntermediate
                  {
                    OFFSET 0.31062601459999983 -0.08126270900000132 0.15443142000000007
                    CHANNELS 3 Yrotation Xrotation Zrotation
                    JOINT leftThumbDistal
                    {
                      OFFSET 0.21627175790000086 -0.08833193599999878 0.018771167799999988
                      CHANNELS 3 Yrotation Xrotation Zrotation
                      End Site
                      {
                        OFFSET 0.21627175790000086 -0.08833193599999878 0.018771167799999988
                      }
                    }
                  }
                }
              }
            }
          }
        }
        JOINT neck
        {
          OFFSET 0 1.5463305265074576 0
          CHANNELS 3 Yrotation Xrotation Zrotation
          JOINT head
          {
            OFFSET 0 0.8456443600000344 0
            CHANNELS 3 Yrotation Xrotation Zrotation
            JOINT leftEye
            {
              OFFSET 0.30408573140000006 0.5104519199999995 0.1276382305
              CHANNELS 3 Yrotation Xrotation Zrotation
              End Site
              {
                OFFSET 0.30408573140000006 0.5104519199999995 0.1276382305
              }
            }
            JOINT rightEye
            {
              OFFSET -0.30409491089999996 0.5104519199999995 0.1276379445
              CHANNELS 3 Yrotation Xrotation Zrotation
              End Site
              {
                OFFSET -0.30409491089999996 0.5104519199999995 0.1276379445
              }
            }
            JOINT jaw
            {
              OFFSET -3.155239131000001e-7 -0.11984121820000082 0.60178107
              CHANNELS 3 Yrotation Xrotation Zrotation
              End Site
              {
                OFFSET -3.155239131000001e-7 -0.11984121820000082 0.60178107
              }
            }
          }
        }
        JOINT rightShoulder
        {
          OFFSET -0.1807303465 1.5087829790000005 0
          CHANNELS 3 Yrotation Xrotation Zrotation
          JOINT rightUpperArm
          {
            OFFSET -0.5985063796536958 0 0
            CHANNELS 3 Yrotation Xrotation Zrotation
            JOINT rightLowerArm
            {
              OFFSET -2.2993322059002854 0 0
              CHANNELS 3 Yrotation Xrotation Zrotation
              JOINT rightHand
              {
                OFFSET -2.395045314457259 0 0
                CHANNELS 3 Yrotation Xrotation Zrotation
                JOINT rightIndexProximal
                {
                  OFFSET -0.5764487688300002 0.0441371204405987 0.17361932004999997
                  CHANNELS 3 Yrotation Xrotation Zrotation
                  JOINT rightIndexIntermediate
                  {
                    OFFSET -0.29573011380000047 -0.01934826376999843 -0.007698921482999974
                    CHANNELS 3 Yrotation Xrotation Zrotation
                    JOINT rightIndexDistal
                    {
                      OFFSET -0.19008373999999884 -0.012503266380000655 -0.0026365778999999897
                      CHANNELS 3 Yrotation Xrotation Zrotation
                      End Site
                      {
                        OFFSET -0.19008373999999884 -0.012503266380000655 -0.0026365778999999897
                      }
                    }
                  }
                }
                JOINT rightMiddleProximal
                {
                  OFFSET -0.5834852037300005 0.05211639405060153 0.02307162440000001
                  CHANNELS 3 Yrotation Xrotation Zrotation
                  JOINT rightMiddleIntermediate
                  {
                    OFFSET -0.33880114510000003 -0.019952774050000954 0.0002455003561999819
                    CHANNELS 3 Yrotation Xrotation Zrotation
                    JOINT rightMiddleDistal
                    {
                      OFFSET -0.20675694929999955 -0.012273788999999091 0.00030209124000002766
                      CHANNELS 3 Yrotation Xrotation Zrotation
                      End Site
                      {
                        OFFSET -0.20675694929999955 -0.012273788999999091 0.00030209124000002766
                      }
                    }
                  }
                }
                JOINT rightLittleProximal
                {
                  OFFSET -0.5346811737299992 -0.011214256288399227 -0.24363941305000003
                  CHANNELS 3 Yrotation Xrotation Zrotation
                  JOINT rightLittleIntermediate
                  {
                    OFFSET -0.21757715980000092 -0.011771559690000988 0.01201554387
                    CHANNELS 3 Yrotation Xrotation Zrotation
                    JOINT rightLittleDistal
                    {
                      OFFSET -0.1475201849000004 -0.00822055339600003 0.006082065407000015
                      CHANNELS 3 Yrotation Xrotation Zrotation
                      End Site
                      {
                        OFFSET -0.1475201849000004 -0.00822055339600003 0.006082065407000015
                      }
                    }
                  }
                }
                JOINT rightRingProximal
                {
                  OFFSET -0.5800810755299999 0.027657985680600072 -0.12066365025000003
                  CHANNELS 3 Yrotation Xrotation Zrotation
                  JOINT rightRingIntermediate
                  {
                    OFFSET -0.26166445029999974 -0.013623118409999302 0.011164098990000045
                    CHANNELS 3 Yrotation Xrotation Zrotation
                    JOINT rightRingDistal
                    {
                      OFFSET -0.17666387530000027 -0.009072900100000503 0.005668185599999959
                      CHANNELS 3 Yrotation Xrotation Zrotation
                      End Site
                      {
                        OFFSET -0.17666387530000027 -0.009072900100000503 0.005668185599999959
                      }
                    }
                  }
                }
                JOINT rightThumbProximal
                {
                  OFFSET -0.10997596379000074 -0.09577489355940072 0.16989765924999997
                  CHANNELS 3 Yrotation Xrotation Zrotation
                  JOINT rightThumbIntermediate
                  {
                    OFFSET -0.31036620999999986 -0.08229339117999834 0.15440884469999996
                    CHANNELS 3 Yrotation Xrotation Zrotation
                    JOINT rightThumbDistal
                    {
                      OFFSET -0.21631306399999906 -0.08825326400000111 0.018656797720000014
                      CHANNELS 3 Yrotation Xrotation Zrotation
                      End Site
                      {
                        OFFSET -0.21631306399999906 -0.08825326400000111 0.018656797720000014
                      }
                    }
                  }
                }
              }
            }
          }
        }
      }
    }
  }
}
MOTION
Frames: 12
Frame Time: 0.03333333333333333
0 11.682712981546562 0 0 0 0 0 0 -5.826343164929014 -0.3712483961610101 -3.6333298826370974 5.838118207697276 0 0 0 0 0 0 0 0 5.826343164929014 0.3712483961610101 -3.6333298826370974 -5.838118207697276 0 0 0 0 0 0 0 -4.610651315171937 0 0 3.0831277533083026 0 0 0 0 0 1.5275236235667615 0 0 0 0 0 0 0 0 0 0 0 0 0 0 0 0 0 0 0 0 0 0 0 0 0 0 0 0 0 0 0 0 0 0 0 0 0 0 0 0 0 0 0 0 0 0 0 0 0 0 0 0 0 0 0 0 1.5275236235667615 0 0 0 0 0 0 0 0 0 0 0 0 0 0 1.5275236235667615 0 0 0 0 0 0 0 0 0 0 0 0 0 0 0 0 0 0 0 0 0 0 0 0 0 0 0 0 0 0 0 0 0 0 0 0 0 0 0 0 0 0 0 0 0 0 0 0 0 0 0 0 0 0 0
0 1.3416592810290293 0 0 -13.00074855455698 0 -2.773393606074665e-15 -55.01200046364596 -5.8263428457616895 10.740266972471117 61.2968522514655 12.202490681960539 0 0.03409449874994369 0 0 0 0 -7.4116866988656485 -55.27773708771229 3.9279818403457933 -10.740261732828646 61.2968522514655 -12.202487206910337 0 0 0 0 0 0 -17.795656718898844 10.042222129200374 -3.934358840474116 0 13.082211412036253 0 0 0 0 0.0358577404242395 1.5275233032878281 0.0009558654889823707 -25.47298083551019 -6.657221554803674 3.338445958896906 -48.50816477804306 0 0 -0.062199951126604085 -0.2911061293414653 0.04999250054799294 0 0 0 0 0 0 0 0 0 0 0 0 0 0 0 0 0 0 0 0 0 0 0 0 0 0 0 0 0 0 0 0 0 0 0 0 0 0 0 0 0 0 0 0 0 -0.0020638335160645246 1.3919985379631494 -0.473042357578583 -13.04561446771826 -4.7449606124862305 1.6812069815568027 0 0 0 0 0 0 0 0 0 0 1.5275236235667615 0 24.59386377525539 -15.455267453378184 -9.448557683718724 0 0 0 0 0 0 0 0 0 0 0 0 0 0 0 0 0 0 0 0 0 0 0 0 0 0 0 0 0 0 0 0 0 0 0 0 0 0 0 0 0 0 0 0 0 0 0 0 0 0 0
0 -8.999394419488503 0 0 -26.001497380190933 0 -180 -69.97599899662875 174.17365699595538 172.42118176865984 52.27152736754298 170.45084076491483 0 0.06818900290257406 0 0 0 0 179.99524529318188 -68.995231262353 169.82924726456164 -172.42118591780599 52.27152736754298 -170.4508476444352 0 0 0 0 0 0 -37.909928271879785 20.849195615590656 -16.284534706220164 0 23.081294275643288 0 0 0 0 0.0717154821756615 1.527522449210673 0.0019117305604028044 -51.68019959462906 -11.197818338283065 9.311393298533343 -97.01632681295345 0 0 -0.12465631340324203 -0.5821576584335038 0.10030294314541625 0 0 0 0 0 0 0 0 0 0 0 0 0 0 0 0 0 0 0 0 0 0 0 0 0 0 0 0 0 0 0 0 0 0 0 0 0 0 0 0 0 0 0 0 0 -0.0030083133810483464 1.2564609595865657 -0.946053977486336 -26.348878590716694 -8.982560619588309 4.417602964813375 0 0 0 0 0 0 0 0 0 0 1.5275236235667615 0 53.61112114131486 -25.052185272098054 -25.782582924716905 0 0 0 0 0 0 0 0 0 0 0 0 0 0 0 0 0 0 0 0 0 0 0 0 0 0 0 0 0 0 0 0 0 0 0 0 0 0 0 0 0 0 0 0 0 0 0 0 0 0 0
0 -8.999394419488503 0 0 -26.001497380190933 0 -180 -69.97599899662875 174.17365699595538 172.42118176865984 52.27152736754298 170.45084076491483 0 0.06818900290257406 0 0 0 0 -179.91127503920418 -68.98187774573297 169.6854622908295 -172.42118591780599 52.27152736754298 -170.4508476444352 0 0 0 0 0 0 -37.909928271879785 20.849195615590656 -16.284534706220164 0 23.081294275643288 0 0 0 0 0.0717154821756615 1.527522449210673 0.0019117305604028044 -51.68019959462906 -11.197818338283065 9.311393298533343 -97.01632681295345 0 0 -0.20305041889743577 -0.8542866671166673 0.11639116666728073 0 0 0 0 0 0 0 0 0 0 0 0 0 0 0 0 0 0 0 0 0 0 0 0 0 0 0 0 0 0 0 0 0 0 0 0 0 0 0 0 0 0 0 0 0 -0.042056885115719964 1.1270369233967439 -1.4118554685209264 -26.346369701594874 -8.950621661817673 4.482885720837142 0 0 0 0 0 0 0 0 0 0 1.5275236235667615 0 53.61112337776226 -25.052185272098054 -25.782582924716905 0 0 0 0 0 0 0 0 0 0 0 0 0 0 0 0 0 0 0 0 0 0 0 0 0 0 0 0 0 0 0 0 0 0 0 0 0 0 0 0 0 0 0 0 0 0 0 0 0 0 0
0 -8.999394419488503 0 0 -26.001497380190933 0 -180 -69.97599899662875 174.17365699595538 172.42118176865984 52.27152736754298 170.45084076491483 0 0.06818900290257406 0 0 0 0 -179.81794586370208 -68.96844668063109 169.5418245818366 -172.42118591780599 52.27152736754298 -170.4508476444352 0 0 0 0 0 0 -37.909928271879785 20.849195615590656 -16.284534706220164 0 23.081294275643288 0 0 0 0 0.0717154821756615 1.527522449210673 0.0019117305604028044 -51.68019959462906 -11.197818338283065 9.311393298533343 -97.01632681295345 0 0 -0.2815273818416658 -1.1263933738037502 0.1328530930312395 0 0 0 0 0 0 0 0 0 0 0 0 0 0 0 0 0 0 0 0 0 0 0 0 0 0 0 0 0 0 0 0 0 0 0 0 0 0 0 0 0 0 0 0 0 -0.08005019740435665 0.9972998123850099 -1.8775490740632104 -26.343820996127352 -8.918684643736796 4.548163880824003 0 0 0 0 0 0 0 0 0 0 1.5275236235667615 0 53.61112337776226 -25.052183387226776 -25.782582924716905 0 0 0 0 0 0 0 0 0 0 0 0 0 0 0 0 0 0 0 0 0 0 0 0 0 0 0 0 0 0 0 0 0 0 0 0 0 0 0 0 0 0 0 0 0 0 0 0 0 0 0
0 -8.999394419488503 0 0 -26.001497380190933 0 -180 -69.97598902304036 174.173656768153 172.42118176865984 52.27152736754298 170.45084076491483 0 0.06818900290257406 0 0 0 0 -179.72475554705812 -68.95493820806674 169.3983153126396 -172.42118591780599 52.27152736754298 -170.4508476444352 0 0 0 0 0 0 -37.909928271879785 20.849195615590656 -16.284534706220164 0 23.081294275643288 0 0 0 0 0.0717154821756615 1.527522449210673 0.0019117305604028044 -51.68019959462906 -11.197818338283065 9.311393298533343 -97.01632681295345 0 0 -0.36028541716424467 -1.3991528286768917 0.14973157992058717 0 0 0 0 0 0 0 0 0 0 0 0 0 0 0 0 0 0 0 0 0 0 0 0 0 0 0 0 0 0 0 0 0 0 0 0 0 0 0 0 0 0 0 0 0 -0.1170761051365447 0.8669344559338535 -2.3442989282132 -26.34123711407364 -8.886740049295158 4.613458419640361 0 0 0 0 0 0 0 0 0 0 1.5275236235667615 0 53.61112337776226 -25.052187156969364 -25.782582924716905 0 0 0 0 0 0 0 0 0 0 0 0 0 0 0 0 0 0 0 0 0 0 0 0 0 0 0 0 0 0 0 0 0 0 0 0 0 0 0 0 0 0 0 0 0 0 0 0 0 0 0
0 -8.999394419488503 0 0 -26.001499280035596 0 -180 -69.97598902304036 174.17365704657857 172.42118176865984 52.27152736754298 170.45084076491483 0 0.06818900290257406 0 0 0 0 -179.63171693705598 -68.94134296526832 169.25495731114117 -172.42118591780599 52.27152736754298 -170.4508476444352 0 0 0 0 0 0 -37.909928271879785 20.849195615590656 -16.284535730936767 0 23.081294275643288 0 0 0 0 0.0717154821756615 1.527522449210673 0.0019117305604028044 -51.68019959462906 -11.197818338283065 9.311393298533343 -97.01632681295345 0 0 -0.4391338607988718 -1.6718888040002797 0.16698728278755595 0 0 0 0 0 0 0 0 0 0 0 0 0 0 0 0 0 0 0 0 0 0 0 0 0 0 0 0 0 0 0 0 0 0 0 0 0 0 0 0 0 0 0 0 0 -0.15303754912291528 0.736271807260248 -2.8109494401654174 -26.338614964791265 -8.854798239412647 4.67874892863611 0 0 0 0 0 0 0 0 0 0 1.5275236235667615 0 53.61112114131486 -25.052189041840702 -25.78258456439439 0 0 0 0 0 0 0 0 0 0 0 0 0 0 0 0 0 0 0 0 0 0 0 0 0 0 0 0 0 0 0 0 0 0 0 0 0 0 0 0 0 0 0 0 0 0 0 0 0 0 0
0 -8.999394419488503 0 0 -26.001499280035596 0 -180 -69.97598902304036 174.173656768153 172.42118176865984 52.27152736754298 170.45084076491483 0 0.06818900290257406 0 0 0 0 -179.53882109599536 -68.92765161345557 169.11173516572734 -172.42118591780599 52.27152736754298 -170.4508476444352 0 0 0 0 0 0 -37.909928271879785 20.849195615590656 -16.284534706220164 0 23.081294275643288 0 0 0 0 0.0717154821756615 1.527522449210673 0.0019117305604028044 -51.68019959462906 -11.197818338283065 9.311393298533343 -97.01632681295345 0 0 -0.5182691681416428 -1.9452653634522727 0.18466481873526633 0 0 0 0 0 0 0 0 0 0 0 0 0 0 0 0 0 0 0 0 0 0 0 0 0 0 0 0 0 0 0 0 0 0 0 0 0 0 0 0 0 0 0 0 0 -0.18801386104108694 0.6050126446879467 -3.2786014251959803 -26.335957652930954 -8.822847971474404 4.744057384476649 0 0 0 0 0 0 0 0 0 0 1.5275236235667615 0 53.61112337776226 -25.052187156969364 -25.782582924716905 0 0 0 0 0 0 0 0 0 0 0 0 0 0 0 0 0 0 0 0 0 0 0 0 0 0 0 0 0 0 0 0 0 0 0 0 0 0 0 0 0 0 0 0 0 0 0 0 0 0 0
0 -8.999394419488503 0 0 -26.001499280035596 0 -180 -69.97599899662875 174.17365699595538 172.42118176865984 52.27152736754298 170.45084076491483 0 0.06818900290257406 0 0 0 0 -179.4460783883879 -68.91387382296817 168.96866217120782 -172.42118591780599 52.27152736754298 -170.4508476444352 0 0 0 0 0 0 -37.909928271879785 20.849195615590656 -16.284534706220164 0 23.081294275643288 0 0 0 0 0.0717154821756615 1.527522449210673 0.0019117305604028044 -51.68019959462906 -11.197818338283065 9.311393298533343 -97.01632681295345 0 0 -0.5975026282840424 -2.218617345336633 0.20272322662962683 0 0 0 0 0 0 0 0 0 0 0 0 0 0 0 0 0 0 0 0 0 0 0 0 0 0 0 0 0 0 0 0 0 0 0 0 0 0 0 0 0 0 0 0 0 -0.22191688689728886 0.47347244780528425 -3.7461629421524876 -26.333262103734334 -8.790901332660365 4.8093613892141756 0 0 0 0 0 0 0 0 0 0 1.5275236235667615 0 53.61112337776226 -25.052183387226776 -25.782582924716905 0 0 0 0 0 0 0 0 0 0 0 0 0 0 0 0 0 0 0 0 0 0 0 0 0 0 0 0 0 0 0 0 0 0 0 0 0 0 0 0 0 0 0 0 0 0 0 0 0 0 0
0 -8.999394419488503 0 0 -26.001497380190933 0 -180 -69.97599899662875 174.17365699595538 172.42118176865984 52.27152736754298 170.45084076491483 0 0.06818900290257406 0 0 0 0 -179.3534762682176 -68.90000975463515 168.8257182998883 -172.42118591780599 52.27152736754298 -170.4508476444352 0 0 0 0 0 0 -37.909928271879785 20.849195615590656 -16.284534706220164 0 23.081294275643288 0 0 0 0 0.0717154821756615 1.527522449210673 0.0019117305604028044 -51.68019959462906 -11.197818338283065 9.311393298533343 -97.01632681295345 0 0 -0.6770275352387323 -2.492596704023469 0.22120801023135728 0 0 0 0 0 0 0 0 0 0 0 0 0 0 0 0 0 0 0 0 0 0 0 0 0 0 0 0 0 0 0 0 0 0 0 0 0 0 0 0 0 0 0 0 0 -0.2548158996609453 0.34136905802990714 -4.214670575357043 -26.330529857600588 -8.758947945922632 4.8746829042134685 0 0 0 0 0 0 0 0 0 0 1.5275236235667615 0 53.61112337776226 -25.052185272098054 -25.782582924716905 0 0 0 0 0 0 0 0 0 0 0 0 0 0 0 0 0 0 0 0 0 0 0 0 0 0 0 0 0 0 0 0 0 0 0 0 0 0 0 0 0 0 0 0 0 0 0 0 0 0 0
0 -8.999394419488503 0 0 -26.001497380190933 0 -180 -69.97599899662875 174.17365699595538 172.42118176865984 52.27152736754298 170.45084076491483 0 0.06818900290257406 0 0 0 0 -179.26102875516264 -68.88606905034491 168.68292767399356 -172.42118591780599 52.27152736754298 -170.4508476444352 0 0 0 0 0 0 -37.909928271879785 20.849195615590656 -16.284535730936767 0 23.081294275643288 0 0 0 0 0.0717154821756615 1.527522449210673 0.0019117305604028044 -51.68019959462906 -11.197818338283065 9.311393298533343 -97.01632681295345 0 0 -0.7566583032570989 -2.766550194176813 0.24007754218787236 0 0 0 0 0 0 0 0 0 0 0 0 0 0 0 0 0 0 0 0 0 0 0 0 0 0 0 0 0 0 0 0 0 0 0 0 0 0 0 0 0 0 0 0 0 -0.28663325260125316 0.20900111715151432 -4.683097399730335 -26.327762469739458 -8.726997304580527 4.94000039997804 0 0 0 0 0 0 0 0 0 0 1.5275236235667615 0 53.61112114131486 -25.052185272098054 -25.782582924716905 0 0 0 0 0 0 0 0 0 0 0 0 0 0 0 0 0 0 0 0 0 0 0 0 0 0 0 0 0 0 0 0 0 0 0 0 0 0 0 0 0 0 0 0 0 0 0 0 0 0 0
0 -8.999394419488503 0 0 -26.001497380190933 0 -180 -69.97599899662875 174.17365699595538 172.4211796049933 52.27153294849135 170.4508389132255 0 0.06818900290257406 0 0 0 0 -179.16872357920906 -68.87205185405286 168.540272097775 -172.42118591780599 52.27152736754298 -170.4508476444352 0 0 0 0 0 0 -37.909928271879785 20.849195615590656 -16.284535730936767 0 23.081294275643288 0 0 0 0 0.0717154821756615 1.527522449210673 0.0019117305604028044 -51.68019959462906 -11.197818338283065 9.311393298533343 -97.01632299974317 0 0 -0.8365853287862065 -3.0411186710046603 0.2593787601616953 0 0 0 0 0 0 0 0 0 0 0 0 0 0 0 0 0 0 0 0 0 0 0 0 0 0 0 0 0 0 0 0 0 0 0 0 0 0 0 0 0 0 0 0 0 -0.3174296042207289 0.0761030773370843 -5.152414952946553 -26.3249568501372 -8.695039897291494 5.0053349651731995 0 0 0 0 0 0 0 0 0 0 1.5275236235667615 0 53.61112337776226 -25.052185272098054 -25.782582924716905 0 0 0 0 0 0 0 0 0 0 0 0 0 0 0 0 0 0 0 0 0 0 0 0 0 0 0 0 0 0 0 0 0 0 0 0 0 0 0 0 0 0 0 0 0 0 0 0 0 0 0
